<svg xmlns="http://www.w3.org/2000/svg" xmlns:xlink="http://www.w3.org/1999/xlink" x="0px" y="0px" viewBox="0 0 48 48" width="48" height="48"><g class="nc-icon-wrapper" fill="#142032"><path data-color="color-2" fill="#f71963" d="M20,18c-3.309,0-6,2.691-6,6s2.691,6,6,6s6-2.691,6-6S23.309,18,20,18z M19,27.858 c-1.721-0.447-3-2-3-3.858s1.279-3.411,3-3.858V27.858z M21,27.858v-7.716c1.721,0.447,3,2,3,3.858S22.721,27.411,21,27.858z"/> <path fill="#142032" d="M43,7H5c-2.206,0-4,1.794-4,4v26c0,2.206,1.794,4,4,4h38c2.206,0,4-1.794,4-4V11C47,8.794,45.206,7,43,7z M28,32h-8c-4.418,0-8-3.582-8-8s3.582-8,8-8h8c4.418,0,8,3.582,8,8S32.418,32,28,32z"/></g></svg>