<svg xmlns="http://www.w3.org/2000/svg" xmlns:xlink="http://www.w3.org/1999/xlink" x="0px" y="0px" viewBox="0 0 48 48" width="48" height="48"><g class="nc-icon-wrapper" fill="#142032"><circle data-color="color-2" cx="19" cy="24" r="8" fill="#f71963" opacity="0.85"/> <path d="M43,7H5a4,4,0,0,0-4,4V37a4,4,0,0,0,4,4H43a4,4,0,0,0,4-4V11A4,4,0,0,0,43,7ZM29,34a9.928,9.928,0,0,1-5-1.353,10,10,0,1,1,0-17.294A10,10,0,1,1,29,34Z" fill="#142032"/> <circle data-color="color-2" cx="29" cy="24" r="8" fill="#f71963" opacity="0.5"/></g></svg>