<svg xmlns="http://www.w3.org/2000/svg" xmlns:xlink="http://www.w3.org/1999/xlink" x="0px" y="0px" viewBox="0 0 48 48" width="48" height="48"><g class="nc-icon-wrapper" fill="#142032"><path fill="#142032" d="M29.057,20.757c-0.115,0-0.213,0.084-0.231,0.197l-0.296,1.877h0.422c0.742,0,1.51,0,1.663-1.005 c0.056-0.353,0.011-0.608-0.136-0.781C30.211,20.732,29.671,20.757,29.057,20.757z"/> <path fill="#142032" d="M35.672,23.09c-0.764,0-1.382,0.531-1.503,1.29c-0.063,0.373,0.012,0.707,0.21,0.942 c0.2,0.237,0.512,0.362,0.9,0.362c0.776,0,1.384-0.514,1.513-1.28c0.059-0.371-0.022-0.707-0.227-0.948 C36.362,23.216,36.053,23.09,35.672,23.09z"/> <path fill="#142032" d="M43,7H5c-2.206,0-4,1.794-4,4v26c0,2.206,1.794,4,4,4h38c2.206,0,4-1.794,4-4V11C47,8.794,45.206,7,43,7z M9.531,24.388H8.645c-0.191,0-0.354,0.139-0.384,0.328l-0.306,1.937c-0.03,0.189-0.193,0.328-0.384,0.328H6.234 c-0.143,0-0.253-0.128-0.231-0.27l1.132-7.18c0.03-0.189,0.193-0.328,0.384-0.328h2.8c0.937,0,1.643,0.247,2.041,0.715 c0.362,0.426,0.482,1.034,0.357,1.807C12.44,23.495,11.375,24.388,9.531,24.388z M18.195,26.654 c-0.03,0.189-0.193,0.328-0.384,0.328h-1.208c-0.143,0-0.253-0.128-0.231-0.27l0.06-0.373c0,0-0.662,0.767-1.856,0.767 c-0.696,0-1.28-0.2-1.689-0.682c-0.445-0.524-0.627-1.275-0.499-2.06c0.246-1.574,1.512-2.697,2.993-2.697 c1.289,0,1.547,0.51,1.678,0.698l0.059-0.375c0.018-0.114,0.116-0.197,0.231-0.197h1.341c0.143,0,0.253,0.128,0.231,0.27 L18.195,26.654z M21.221,28.797h-1.346c-0.189,0-0.3-0.214-0.19-0.368l1.396-1.97l-1.484-4.356 c-0.052-0.151,0.061-0.309,0.221-0.309h1.325c0.172,0,0.323,0.113,0.373,0.278l0.788,2.631l1.859-2.738 c0.072-0.107,0.193-0.171,0.322-0.171h1.348c0.188,0,0.299,0.212,0.192,0.367l-4.482,6.469 C21.468,28.734,21.349,28.797,21.221,28.797z M29.503,24.388h-0.886c-0.191,0-0.354,0.139-0.384,0.328l-0.321,2.036 c-0.021,0.132-0.135,0.23-0.269,0.23h-1.437c-0.143,0-0.253-0.128-0.231-0.27l1.132-7.18c0.03-0.189,0.193-0.328,0.384-0.328h2.8 c0.937,0,1.643,0.247,2.041,0.715c0.362,0.426,0.482,1.034,0.357,1.807C32.412,23.495,31.348,24.388,29.503,24.388z M38.168,26.654 c-0.03,0.189-0.193,0.328-0.384,0.328h-1.208c-0.143,0-0.253-0.128-0.231-0.27l0.06-0.373c0,0-0.662,0.767-1.856,0.767 c-0.696,0-1.28-0.2-1.689-0.682c-0.445-0.524-0.627-1.275-0.499-2.06c0.246-1.574,1.512-2.697,2.993-2.697 c1.289,0,1.547,0.509,1.678,0.698l0.059-0.375c0.018-0.114,0.116-0.197,0.231-0.197h1.341c0.143,0,0.253,0.128,0.231,0.27 L38.168,26.654z M40.864,26.654c-0.03,0.189-0.193,0.328-0.384,0.328h-1.156c-0.143,0-0.253-0.128-0.231-0.27l1.149-7.312 c0.018-0.114,0.116-0.197,0.231-0.197h1.294c0.143,0,0.253,0.128,0.231,0.27L40.864,26.654z"/> <path fill="#142032" d="M15.7,23.09c-0.764,0-1.382,0.531-1.503,1.29c-0.063,0.373,0.012,0.707,0.21,0.942 c0.2,0.237,0.511,0.362,0.9,0.362c0.776,0,1.384-0.514,1.513-1.28c0.059-0.371-0.022-0.707-0.227-0.948 C16.389,23.216,16.08,23.09,15.7,23.09z"/> <path fill="#142032" d="M9.278,20.757H9.084c-0.115,0-0.213,0.084-0.231,0.197l-0.296,1.877H8.98c0.742,0,1.51,0,1.663-1.005 c0.056-0.353,0.011-0.608-0.136-0.781C10.261,20.757,9.783,20.757,9.278,20.757z"/></g></svg>