<svg xmlns="http://www.w3.org/2000/svg" xmlns:xlink="http://www.w3.org/1999/xlink" x="0px" y="0px" viewBox="0 0 48 48" width="48" height="48"><g class="nc-icon-wrapper" fill="#142032"><path d="M24,46a1,1,0,0,0,.707-.293C25.372,45.042,41,29.285,41,18A16.836,16.836,0,0,0,24,1,16.836,16.836,0,0,0,7,18C7,29.285,22.628,45.042,23.293,45.707A1,1,0,0,0,24,46ZM24,8a4.047,4.047,0,0,1,4,4.091C28,14.35,26.209,17,24,17s-4-2.65-4-4.909A4.047,4.047,0,0,1,24,8ZM16,24V22.869a2.99,2.99,0,0,1,1.919-2.8,17.711,17.711,0,0,1,12.15.013A2.993,2.993,0,0,1,32,22.885V24a1,1,0,0,1-1,1H17A1,1,0,0,1,16,24Z" fill="#142032"/></g></svg>